PathFileType	4	(X/Y/Z)	C:\Users\italobelli\Desktop\GitHub\PTbot_officialCBL\Personal_Results\SHRUG03_noisy1.trc
DataRate	CameraRate	NumFrames	NumMarkers	Units	OrigDataRate	OrigDataStartFrame	OrigNumFrames
110.888889	110.888889	50	9	m	110.888889	126	500
Frame#	Time		gu		centelbow		EpL		centpxt8		centijc7		ts		aa		ai		ij
			X1	Y1	Z1	X2	Y2	Z2	X3	Y3	Z3	X4	Y4	Z4	X5	Y5	Z5	X6	Y6	Z6	X7	Y7	Z7	X8	Y8	Z8	X9	Y9	Z9

126	1.1273	-0.067453	0.025047	0.16183	-0.10951	-0.21972	0.21088	-0.087696	-0.21429	0.23385	-0.046816	-0.15316	-0.008669	-0.046816	0.031938	-0.008669	-0.12657	0.054931	0.0516	-0.089549	0.068085	0.16414	-0.15168	-0.051873	0.076532	0	0	0
127	1.1363	-0.067358	0.025637	0.16182	-0.10902	-0.21908	0.21136	-0.08718	-0.21357	0.23427	-0.046816	-0.15316	-0.008669	-0.046816	0.031938	-0.008669	-0.12658	0.054949	0.051501	-0.089474	0.068618	0.16394	-0.15145	-0.051764	0.076864	0	0	0
128	1.1453	-0.067265	0.026228	0.1618	-0.10851	-0.21843	0.21185	-0.086641	-0.21285	0.23471	-0.046816	-0.15316	-0.008669	-0.046816	0.031938	-0.008669	-0.12658	0.054966	0.051402	-0.0894	0.069149	0.16373	-0.15122	-0.051658	0.077201	0	0	0
129	1.1543	-0.067173	0.026819	0.16179	-0.10798	-0.21778	0.21235	-0.086081	-0.21212	0.23516	-0.046816	-0.15316	-0.008669	-0.046816	0.031938	-0.008669	-0.12659	0.054983	0.051303	-0.089329	0.069678	0.16352	-0.15099	-0.051554	0.077543	0	0	0
130	1.1633	-0.067083	0.027412	0.16178	-0.10743	-0.21713	0.21287	-0.085501	-0.21139	0.23562	-0.046816	-0.15316	-0.008669	-0.046816	0.031938	-0.008669	-0.1266	0.054999	0.051204	-0.089259	0.070205	0.16331	-0.15076	-0.051452	0.07789	0	0	0
131	1.1723	-0.066993	0.028004	0.16176	-0.10686	-0.21647	0.21341	-0.084902	-0.21066	0.2361	-0.046816	-0.15316	-0.008669	-0.046816	0.031938	-0.008669	-0.1266	0.055015	0.051104	-0.089192	0.070729	0.16309	-0.15052	-0.051353	0.07824	0	0	0
132	1.1814	-0.066906	0.028597	0.16175	-0.10628	-0.21582	0.21395	-0.084286	-0.20992	0.23659	-0.046816	-0.15316	-0.008669	-0.046816	0.031938	-0.008669	-0.12661	0.05503	0.051005	-0.089127	0.07125	0.16288	-0.15029	-0.051256	0.078594	0	0	0
133	1.1904	-0.066819	0.029189	0.16175	-0.10569	-0.21516	0.21451	-0.083655	-0.20919	0.23708	-0.046816	-0.15316	-0.008669	-0.046816	0.031938	-0.008669	-0.12662	0.055045	0.050907	-0.089065	0.071769	0.16266	-0.15005	-0.051161	0.078952	0	0	0
134	1.1994	-0.066735	0.02978	0.16174	-0.10508	-0.2145	0.21508	-0.083009	-0.20845	0.23759	-0.046816	-0.15316	-0.008669	-0.046816	0.031938	-0.008669	-0.12663	0.05506	0.050808	-0.089004	0.072284	0.16244	-0.14981	-0.051068	0.079312	0	0	0
135	1.2084	-0.066651	0.030371	0.16173	-0.10445	-0.21385	0.21565	-0.082351	-0.20771	0.2381	-0.046816	-0.15316	-0.008669	-0.046816	0.031938	-0.008669	-0.12663	0.055073	0.05071	-0.088945	0.072795	0.16222	-0.14957	-0.050977	0.079673	0	0	0
136	1.2174	-0.06657	0.03096	0.16173	-0.10382	-0.21319	0.21623	-0.081682	-0.20696	0.23862	-0.046816	-0.15316	-0.008669	-0.046816	0.031938	-0.008669	-0.12664	0.055087	0.050611	-0.088889	0.073304	0.162	-0.14933	-0.050889	0.080037	0	0	0
137	1.2265	-0.06649	0.031547	0.16172	-0.10318	-0.21253	0.21682	-0.081004	-0.20622	0.23914	-0.046816	-0.15316	-0.008669	-0.046816	0.031938	-0.008669	-0.12665	0.0551	0.050514	-0.088835	0.073808	0.16178	-0.14909	-0.050802	0.080401	0	0	0
138	1.2355	-0.066412	0.032133	0.16172	-0.10253	-0.21188	0.21741	-0.080318	-0.20548	0.23967	-0.046816	-0.15316	-0.008669	-0.046816	0.031938	-0.008669	-0.12666	0.055112	0.050416	-0.088783	0.074308	0.16156	-0.14885	-0.050718	0.080767	0	0	0
139	1.2445	-0.066335	0.032716	0.16172	-0.10188	-0.21122	0.21801	-0.079624	-0.20474	0.24021	-0.046816	-0.15316	-0.008669	-0.046816	0.031938	-0.008669	-0.12667	0.055124	0.050319	-0.088733	0.074804	0.16134	-0.14861	-0.050635	0.081132	0	0	0
140	1.2535	-0.06626	0.033296	0.16172	-0.10122	-0.21057	0.2186	-0.078926	-0.20401	0.24074	-0.046816	-0.15316	-0.008669	-0.046816	0.031938	-0.008669	-0.12668	0.055136	0.050223	-0.088685	0.075296	0.16113	-0.14837	-0.050555	0.081497	0	0	0
141	1.2625	-0.066188	0.033873	0.16172	-0.10055	-0.20992	0.2192	-0.078225	-0.20327	0.24128	-0.046816	-0.15316	-0.008669	-0.046816	0.031938	-0.008669	-0.12669	0.055147	0.050127	-0.08864	0.075783	0.16091	-0.14814	-0.050476	0.081861	0	0	0
142	1.2715	-0.066117	0.034447	0.16172	-0.099886	-0.20927	0.2198	-0.077521	-0.20254	0.24182	-0.046816	-0.15316	-0.008669	-0.046816	0.031938	-0.008669	-0.12671	0.055158	0.050032	-0.088597	0.076266	0.16069	-0.1479	-0.0504	0.082223	0	0	0
143	1.2806	-0.066048	0.035018	0.16173	-0.099219	-0.20863	0.2204	-0.076816	-0.20181	0.24235	-0.046816	-0.15316	-0.008669	-0.046816	0.031938	-0.008669	-0.12672	0.055168	0.049937	-0.088556	0.076743	0.16047	-0.14767	-0.050325	0.082584	0	0	0
144	1.2896	-0.065981	0.035584	0.16173	-0.098553	-0.20799	0.221	-0.076113	-0.20108	0.24289	-0.046816	-0.15316	-0.008669	-0.046816	0.031938	-0.008669	-0.12673	0.055178	0.049843	-0.088517	0.077215	0.16026	-0.14745	-0.050252	0.082942	0	0	0
145	1.2986	-0.065916	0.036146	0.16174	-0.097889	-0.20735	0.22159	-0.075411	-0.20036	0.24342	-0.046816	-0.15316	-0.008669	-0.046816	0.031938	-0.008669	-0.12674	0.055188	0.049749	-0.088481	0.077682	0.16005	-0.14722	-0.050181	0.083297	0	0	0
146	1.3076	-0.065853	0.036704	0.16174	-0.097228	-0.20672	0.22218	-0.074714	-0.19965	0.24395	-0.046816	-0.15316	-0.008669	-0.046816	0.031938	-0.008669	-0.12675	0.055197	0.049657	-0.088446	0.078143	0.15984	-0.147	-0.050112	0.083649	0	0	0
147	1.3166	-0.065792	0.037256	0.16175	-0.096573	-0.20609	0.22276	-0.074022	-0.19893	0.24447	-0.046816	-0.15316	-0.008669	-0.046816	0.031938	-0.008669	-0.12677	0.055206	0.049565	-0.088414	0.078598	0.15963	-0.14678	-0.050045	0.083998	0	0	0
148	1.3257	-0.065734	0.037804	0.16176	-0.095923	-0.20547	0.22334	-0.073336	-0.19823	0.24499	-0.046816	-0.15316	-0.008669	-0.046816	0.031938	-0.008669	-0.12678	0.055214	0.049474	-0.088384	0.079047	0.15943	-0.14657	-0.049979	0.084341	0	0	0
149	1.3347	-0.065678	0.038345	0.16177	-0.095282	-0.20485	0.2239	-0.072659	-0.19753	0.2455	-0.046816	-0.15316	-0.008669	-0.046816	0.031938	-0.008669	-0.12679	0.055222	0.049384	-0.088357	0.07949	0.15923	-0.14636	-0.049915	0.08468	0	0	0
150	1.3437	-0.065624	0.038881	0.16179	-0.094649	-0.20423	0.22446	-0.071992	-0.19684	0.246	-0.046816	-0.15316	-0.008669	-0.046816	0.031938	-0.008669	-0.1268	0.05523	0.049295	-0.088332	0.079927	0.15903	-0.14615	-0.049853	0.085014	0	0	0
151	1.3527	-0.065572	0.03941	0.1618	-0.094027	-0.20363	0.22501	-0.071336	-0.19615	0.2465	-0.046816	-0.15316	-0.008669	-0.046816	0.031938	-0.008669	-0.12682	0.055237	0.049207	-0.088309	0.080356	0.15884	-0.14596	-0.049792	0.085342	0	0	0
152	1.3617	-0.065523	0.039933	0.16182	-0.093416	-0.20303	0.22555	-0.070693	-0.19547	0.24698	-0.046816	-0.15316	-0.008669	-0.046816	0.031938	-0.008669	-0.12683	0.055244	0.04912	-0.088288	0.080779	0.15865	-0.14576	-0.049733	0.085663	0	0	0
153	1.3707	-0.065476	0.040449	0.16183	-0.092819	-0.20243	0.22607	-0.070064	-0.1948	0.24745	-0.046816	-0.15316	-0.008669	-0.046816	0.031938	-0.008669	-0.12685	0.055251	0.049034	-0.08827	0.081195	0.15846	-0.14558	-0.049676	0.085977	0	0	0
154	1.3798	-0.065431	0.040958	0.16185	-0.092236	-0.20184	0.22658	-0.06945	-0.19414	0.24791	-0.046816	-0.15316	-0.008669	-0.046816	0.031938	-0.008669	-0.12686	0.055258	0.048949	-0.088254	0.081604	0.15828	-0.1454	-0.04962	0.086285	0	0	0
155	1.3888	-0.06539	0.041459	0.16187	-0.09167	-0.20127	0.22708	-0.068854	-0.19349	0.24836	-0.046816	-0.15316	-0.008669	-0.046816	0.031938	-0.008669	-0.12687	0.055264	0.048866	-0.08824	0.082005	0.1581	-0.14522	-0.049565	0.086584	0	0	0
156	1.3978	-0.06535	0.041952	0.16189	-0.09112	-0.20069	0.22756	-0.068277	-0.19285	0.24879	-0.046816	-0.15316	-0.008669	-0.046816	0.031938	-0.008669	-0.12689	0.05527	0.048783	-0.088229	0.082399	0.15793	-0.14506	-0.049512	0.086875	0	0	0
157	1.4068	-0.065314	0.042438	0.16191	-0.09059	-0.20013	0.22802	-0.06772	-0.19222	0.24921	-0.046816	-0.15316	-0.008669	-0.046816	0.031938	-0.008669	-0.1269	0.055275	0.048702	-0.088219	0.082784	0.15776	-0.1449	-0.049461	0.087157	0	0	0
158	1.4158	-0.06528	0.042914	0.16193	-0.09008	-0.19958	0.22846	-0.067184	-0.1916	0.24961	-0.046816	-0.15316	-0.008669	-0.046816	0.031938	-0.008669	-0.12691	0.055281	0.048623	-0.088213	0.083162	0.1576	-0.14475	-0.049411	0.08743	0	0	0
159	1.4248	-0.065248	0.043382	0.16196	-0.089591	-0.19903	0.22888	-0.066672	-0.191	0.25	-0.046816	-0.15316	-0.008669	-0.046816	0.031938	-0.008669	-0.12693	0.055286	0.048544	-0.088208	0.083531	0.15744	-0.14461	-0.049362	0.087693	0	0	0
160	1.4339	-0.06522	0.04384	0.16199	-0.089125	-0.1985	0.22929	-0.066184	-0.1904	0.25036	-0.046816	-0.15316	-0.008669	-0.046816	0.031938	-0.008669	-0.12694	0.055291	0.048467	-0.088206	0.083892	0.15729	-0.14447	-0.049315	0.087946	0	0	0
161	1.4429	-0.065194	0.044289	0.16201	-0.088684	-0.19797	0.22967	-0.065722	-0.18982	0.25071	-0.046816	-0.15316	-0.008669	-0.046816	0.031938	-0.008669	-0.12696	0.055295	0.048392	-0.088206	0.084244	0.15715	-0.14435	-0.049269	0.088188	0	0	0
162	1.4519	-0.065171	0.044728	0.16204	-0.088268	-0.19745	0.23002	-0.065288	-0.18925	0.25104	-0.046816	-0.15316	-0.008669	-0.046816	0.031938	-0.008669	-0.12697	0.0553	0.048318	-0.088209	0.084588	0.15702	-0.14423	-0.049224	0.088418	0	0	0
163	1.4609	-0.065151	0.045157	0.16207	-0.08788	-0.19695	0.23036	-0.064883	-0.18869	0.25134	-0.046816	-0.15316	-0.008669	-0.046816	0.031938	-0.008669	-0.12698	0.055304	0.048245	-0.088214	0.084922	0.15689	-0.14413	-0.04918	0.088637	0	0	0
164	1.4699	-0.065134	0.045575	0.1621	-0.08752	-0.19645	0.23066	-0.064509	-0.18815	0.25162	-0.046816	-0.15316	-0.008669	-0.046816	0.031938	-0.008669	-0.127	0.055308	0.048175	-0.088221	0.085247	0.15676	-0.14404	-0.049138	0.088844	0	0	0
165	1.479	-0.06512	0.045983	0.16214	-0.08719	-0.19597	0.23095	-0.064167	-0.18762	0.25188	-0.046816	-0.15316	-0.008669	-0.046816	0.031938	-0.008669	-0.12701	0.055311	0.048106	-0.088231	0.085562	0.15665	-0.14395	-0.049097	0.089037	0	0	0
166	1.488	-0.065109	0.046379	0.16217	-0.086892	-0.1955	0.2312	-0.063858	-0.18711	0.25212	-0.046816	-0.15316	-0.008669	-0.046816	0.031938	-0.008669	-0.12702	0.055315	0.048038	-0.088243	0.085868	0.15654	-0.14388	-0.049057	0.089218	0	0	0
167	1.497	-0.065101	0.046764	0.16221	-0.086626	-0.19504	0.23142	-0.063584	-0.18661	0.25233	-0.046816	-0.15316	-0.008669	-0.046816	0.031938	-0.008669	-0.12704	0.055318	0.047972	-0.088258	0.086164	0.15644	-0.14382	-0.049019	0.089385	0	0	0
168	1.506	-0.065096	0.047136	0.16225	-0.086389	-0.19459	0.23162	-0.063341	-0.18613	0.25251	-0.046816	-0.15316	-0.008669	-0.046816	0.031938	-0.008669	-0.12705	0.055321	0.047909	-0.088275	0.086448	0.15635	-0.14377	-0.048981	0.089538	0	0	0
169	1.515	-0.065096	0.047489	0.16228	-0.086162	-0.19416	0.2318	-0.063111	-0.18566	0.25268	-0.046816	-0.15316	-0.008669	-0.046816	0.031938	-0.008669	-0.12706	0.055324	0.047847	-0.088295	0.086718	0.15626	-0.14373	-0.048945	0.089679	0	0	0
170	1.524	-0.0651	0.047822	0.16232	-0.085945	-0.19374	0.23197	-0.062891	-0.18521	0.25284	-0.046816	-0.15316	-0.008669	-0.046816	0.031938	-0.008669	-0.12707	0.055327	0.047786	-0.088319	0.086972	0.15618	-0.14369	-0.048911	0.089809	0	0	0
171	1.5331	-0.065108	0.048138	0.16237	-0.085736	-0.19333	0.23212	-0.062683	-0.18477	0.25299	-0.046816	-0.15316	-0.008669	-0.046816	0.031938	-0.008669	-0.12709	0.055329	0.047728	-0.088346	0.08721	0.15611	-0.14366	-0.048878	0.089928	0	0	0
172	1.5421	-0.065121	0.048434	0.16241	-0.085537	-0.19293	0.23226	-0.062486	-0.18435	0.25313	-0.046816	-0.15316	-0.008669	-0.046816	0.031938	-0.008669	-0.1271	0.055331	0.047671	-0.088376	0.087434	0.15604	-0.14365	-0.048847	0.090036	0	0	0
173	1.5511	-0.065137	0.048712	0.16245	-0.085348	-0.19255	0.23238	-0.062299	-0.18394	0.25325	-0.046816	-0.15316	-0.008669	-0.046816	0.031938	-0.008669	-0.12711	0.055333	0.047616	-0.088409	0.087643	0.15598	-0.14363	-0.048817	0.090134	0	0	0
174	1.5601	-0.065157	0.048972	0.1625	-0.085167	-0.19218	0.23249	-0.062124	-0.18354	0.25336	-0.046816	-0.15316	-0.008669	-0.046816	0.031938	-0.008669	-0.12712	0.055334	0.047563	-0.088445	0.087837	0.15592	-0.14363	-0.04879	0.09022	0	0	0
175	1.5691	-0.065181	0.049214	0.16254	-0.084996	-0.19182	0.23259	-0.061959	-0.18316	0.25346	-0.046816	-0.15316	-0.008669	-0.046816	0.031938	-0.008669	-0.12714	0.055336	0.047512	-0.088484	0.088017	0.15587	-0.14363	-0.048764	0.090296	0	0	0
